<svg viewBox="0 0 174.178 28" fill="none" role="img" aria-label="Superagent" xmlns="http://www.w3.org/2000/svg">
<path d="M19.993 0L0 23.11H19.993V0Z" fill="#8989b0"/>
<path d="M19.9929 0L40.0819 23.11H19.9929V0Z" fill="#8989b0" fill-opacity="0.65"/>
<path d="M0 23.1101H40.082L20.089 27.9041L0 23.1101Z" fill="#8989b0" fill-opacity="0.4"/>
<path d="M59.044 22.368C57.7406 22.368 56.606 22.1303 55.64 21.655C54.6893 21.1797 53.938 20.5203 53.386 19.677C52.834 18.8337 52.512 17.8523 52.42 16.733L54.973 16.572C55.0803 17.3387 55.3026 17.9903 55.64 18.527C55.9773 19.0483 56.4296 19.447 56.997 19.723C57.5796 19.9837 58.2773 20.114 59.09 20.114C59.7953 20.114 60.3933 20.0297 60.884 19.861C61.39 19.677 61.7733 19.4087 62.034 19.056C62.2946 18.7033 62.425 18.274 62.425 17.768C62.425 17.308 62.31 16.9017 62.08 16.549C61.8653 16.181 61.4436 15.8513 60.815 15.56C60.2016 15.2533 59.297 14.9543 58.101 14.663C56.7976 14.341 55.755 13.9883 54.973 13.605C54.191 13.2217 53.6236 12.7463 53.271 12.179C52.9336 11.5963 52.765 10.8833 52.765 10.04C52.765 9.10467 52.9873 8.28433 53.432 7.579C53.892 6.85833 54.5436 6.29867 55.387 5.9C56.2303 5.50133 57.2423 5.302 58.423 5.302C59.665 5.302 60.723 5.532 61.597 5.992C62.4863 6.452 63.184 7.08067 63.69 7.878C64.2113 8.67533 64.5333 9.58767 64.656 10.615L62.103 10.753C62.0263 10.1243 61.8346 9.57233 61.528 9.097C61.2213 8.60633 60.8073 8.23067 60.286 7.97C59.7646 7.694 59.1283 7.556 58.377 7.556C57.4263 7.556 56.675 7.77833 56.123 8.223C55.5863 8.65233 55.318 9.22733 55.318 9.948C55.318 10.408 55.4253 10.799 55.64 11.121C55.87 11.4277 56.2686 11.696 56.836 11.926C57.4186 12.156 58.239 12.4013 59.297 12.662C60.7076 12.984 61.827 13.3827 62.655 13.858C63.4983 14.318 64.0963 14.8623 64.449 15.491C64.8016 16.1197 64.978 16.8327 64.978 17.63C64.978 18.596 64.725 19.4393 64.219 20.16C63.7283 20.8653 63.0383 21.4097 62.149 21.793C61.2596 22.1763 60.2246 22.368 59.044 22.368ZM71.6318 22.276C70.4051 22.276 69.4238 21.8697 68.6878 21.057C67.9671 20.229 67.6068 19.0867 67.6068 17.63V9.764H70.0448V17.009C70.0448 18.113 70.2365 18.9257 70.6198 19.447C71.0031 19.9683 71.5858 20.229 72.3678 20.229C73.2571 20.229 73.9471 19.9453 74.4378 19.378C74.9438 18.7953 75.1968 17.9827 75.1968 16.94V9.764H77.6348V22H75.3578L75.3118 18.803L75.6568 18.941C75.4421 20.0143 74.9898 20.8423 74.2998 21.425C73.6098 21.9923 72.7205 22.276 71.6318 22.276ZM80.7384 25.45V9.764H83.0384L83.1074 12.386L82.8314 12.248C83.138 11.3433 83.644 10.661 84.3494 10.201C85.0547 9.72567 85.8674 9.488 86.7874 9.488C87.9834 9.488 88.9647 9.787 89.7314 10.385C90.5134 10.9677 91.0884 11.742 91.4564 12.708C91.8397 13.674 92.0314 14.732 92.0314 15.882C92.0314 17.032 91.8397 18.09 91.4564 19.056C91.0884 20.022 90.5134 20.804 89.7314 21.402C88.9647 21.9847 87.9834 22.276 86.7874 22.276C86.174 22.276 85.599 22.1687 85.0624 21.954C84.5257 21.7393 84.0657 21.4403 83.6824 21.057C83.3144 20.6583 83.0537 20.1907 82.9004 19.654L83.1764 19.378V25.45H80.7384ZM86.3504 20.16C87.3317 20.16 88.0984 19.7843 88.6504 19.033C89.2177 18.2817 89.5014 17.2313 89.5014 15.882C89.5014 14.5327 89.2177 13.4823 88.6504 12.731C88.0984 11.9797 87.3317 11.604 86.3504 11.604C85.7064 11.604 85.1467 11.765 84.6714 12.087C84.196 12.3937 83.828 12.869 83.5674 13.513C83.3067 14.157 83.1764 14.9467 83.1764 15.882C83.1764 16.8173 83.299 17.607 83.5444 18.251C83.805 18.895 84.173 19.378 84.6484 19.7C85.139 20.0067 85.7064 20.16 86.3504 20.16ZM99.1989 22.276C98.0029 22.276 96.9679 22.0153 96.0939 21.494C95.2353 20.9727 94.5683 20.229 94.0929 19.263C93.6329 18.297 93.4029 17.17 93.4029 15.882C93.4029 14.594 93.6329 13.4747 94.0929 12.524C94.5683 11.558 95.2353 10.8143 96.0939 10.293C96.9526 9.75633 97.9646 9.488 99.1299 9.488C100.234 9.488 101.208 9.74867 102.051 10.27C102.894 10.776 103.546 11.512 104.006 12.478C104.481 13.444 104.719 14.6093 104.719 15.974V16.595H95.9329C95.9943 17.791 96.3086 18.688 96.8759 19.286C97.4586 19.884 98.2406 20.183 99.2219 20.183C99.9426 20.183 100.541 20.0143 101.016 19.677C101.491 19.3397 101.821 18.8873 102.005 18.32L104.535 18.481C104.213 19.6157 103.577 20.5357 102.626 21.241C101.691 21.931 100.548 22.276 99.1989 22.276ZM95.9329 14.755H102.143C102.066 13.6663 101.752 12.8613 101.2 12.34C100.663 11.8187 99.9733 11.558 99.1299 11.558C98.2559 11.558 97.5353 11.834 96.9679 12.386C96.4159 12.9227 96.0709 13.7123 95.9329 14.755ZM106.844 22V9.764H109.075L109.167 13.007L108.96 12.938C109.129 11.834 109.466 11.029 109.972 10.523C110.494 10.017 111.191 9.764 112.065 9.764H113.238V11.949H112.065C111.452 11.949 110.938 12.0487 110.524 12.248C110.11 12.4473 109.796 12.754 109.581 13.168C109.382 13.582 109.282 14.1187 109.282 14.778V22H106.844ZM118.102 22.276C116.829 22.276 115.81 21.9847 115.043 21.402C114.292 20.8193 113.916 19.999 113.916 18.941C113.916 17.883 114.23 17.0627 114.859 16.48C115.503 15.882 116.492 15.4527 117.826 15.192L122.035 14.387C122.035 13.4363 121.813 12.731 121.368 12.271C120.923 11.7957 120.264 11.558 119.39 11.558C118.608 11.558 117.995 11.7343 117.55 12.087C117.105 12.4243 116.799 12.9303 116.63 13.605L114.123 13.444C114.353 12.2173 114.92 11.2513 115.825 10.546C116.745 9.84067 117.933 9.488 119.39 9.488C121.046 9.488 122.303 9.93267 123.162 10.822C124.036 11.696 124.473 12.9303 124.473 14.525V19.286C124.473 19.5773 124.519 19.7843 124.611 19.907C124.718 20.0143 124.887 20.068 125.117 20.068H125.554V22C125.477 22.0153 125.355 22.0307 125.186 22.046C125.017 22.0613 124.841 22.069 124.657 22.069C124.136 22.069 123.683 21.9847 123.3 21.816C122.932 21.6473 122.656 21.3713 122.472 20.988C122.288 20.5893 122.196 20.0603 122.196 19.401L122.449 19.516C122.326 20.0527 122.058 20.528 121.644 20.942C121.245 21.356 120.732 21.6857 120.103 21.931C119.49 22.161 118.823 22.276 118.102 22.276ZM118.493 20.344C119.229 20.344 119.858 20.206 120.379 19.93C120.9 19.6387 121.307 19.24 121.598 18.734C121.889 18.228 122.035 17.653 122.035 17.009V16.227L118.447 16.917C117.711 17.055 117.19 17.2773 116.883 17.584C116.592 17.8753 116.446 18.251 116.446 18.711C116.446 19.2323 116.622 19.6387 116.975 19.93C117.343 20.206 117.849 20.344 118.493 20.344ZM132.1 25.726C131.134 25.726 130.283 25.5803 129.547 25.289C128.811 24.9977 128.205 24.5837 127.73 24.047C127.254 23.5257 126.932 22.9123 126.764 22.207L129.294 22.046C129.462 22.552 129.754 22.9507 130.168 23.242C130.597 23.5487 131.241 23.702 132.1 23.702C133.112 23.702 133.886 23.4873 134.423 23.058C134.975 22.6287 135.251 21.977 135.251 21.103V19.332C134.959 19.9607 134.492 20.459 133.848 20.827C133.204 21.195 132.483 21.379 131.686 21.379C130.658 21.379 129.746 21.126 128.949 20.62C128.151 20.114 127.53 19.4163 127.086 18.527C126.641 17.6377 126.419 16.6103 126.419 15.445C126.419 14.2643 126.633 13.2293 127.063 12.34C127.507 11.4507 128.121 10.753 128.903 10.247C129.7 9.741 130.597 9.488 131.594 9.488C132.468 9.488 133.234 9.68733 133.894 10.086C134.568 10.4847 135.051 11.0213 135.343 11.696V9.764H137.689V21.034C137.689 22.046 137.459 22.897 136.999 23.587C136.554 24.2923 135.91 24.8213 135.067 25.174C134.239 25.542 133.25 25.726 132.1 25.726ZM132.077 19.309C133.027 19.309 133.786 18.964 134.354 18.274C134.936 17.584 135.235 16.6333 135.251 15.422C135.266 14.6247 135.143 13.9423 134.883 13.375C134.622 12.7923 134.246 12.3477 133.756 12.041C133.28 11.719 132.721 11.558 132.077 11.558C131.08 11.558 130.306 11.9107 129.754 12.616C129.217 13.306 128.949 14.2413 128.949 15.422C128.949 16.618 129.225 17.5687 129.777 18.274C130.344 18.964 131.111 19.309 132.077 19.309ZM145.616 22.276C144.42 22.276 143.385 22.0153 142.511 21.494C141.652 20.9727 140.985 20.229 140.51 19.263C140.05 18.297 139.82 17.17 139.82 15.882C139.82 14.594 140.05 13.4747 140.51 12.524C140.985 11.558 141.652 10.8143 142.511 10.293C143.369 9.75633 144.381 9.488 145.547 9.488C146.651 9.488 147.624 9.74867 148.468 10.27C149.311 10.776 149.963 11.512 150.423 12.478C150.898 13.444 151.136 14.6093 151.136 15.974V16.595H142.35C142.411 17.791 142.725 18.688 143.293 19.286C143.875 19.884 144.657 20.183 145.639 20.183C146.359 20.183 146.957 20.0143 147.433 19.677C147.908 19.3397 148.238 18.8873 148.422 18.32L150.952 18.481C150.63 19.6157 149.993 20.5357 149.043 21.241C148.107 21.931 146.965 22.276 145.616 22.276ZM142.35 14.755H148.56C148.483 13.6663 148.169 12.8613 147.617 12.34C147.08 11.8187 146.39 11.558 145.547 11.558C144.673 11.558 143.952 11.834 143.385 12.386C142.833 12.9227 142.488 13.7123 142.35 14.755ZM153.261 22V9.764H155.492L155.584 13.03L155.285 12.869C155.423 12.0717 155.684 11.4277 156.067 10.937C156.45 10.4463 156.918 10.086 157.47 9.856C158.022 9.61067 158.62 9.488 159.264 9.488C160.184 9.488 160.943 9.695 161.541 10.109C162.154 10.5077 162.614 11.0597 162.921 11.765C163.243 12.455 163.404 13.2447 163.404 14.134V22H160.966V14.87C160.966 14.1493 160.889 13.5437 160.736 13.053C160.583 12.5623 160.33 12.1867 159.977 11.926C159.624 11.6653 159.164 11.535 158.597 11.535C157.738 11.535 157.041 11.8187 156.504 12.386C155.967 12.9533 155.699 13.7813 155.699 14.87V22H153.261ZM170.321 22C169.156 22 168.297 21.7317 167.745 21.195C167.193 20.6583 166.917 19.8227 166.917 18.688V6.889H169.355V18.504C169.355 19.0713 169.478 19.4623 169.723 19.677C169.968 19.8917 170.344 19.999 170.85 19.999H172.598V22H170.321ZM165.054 11.765V9.764H172.598V11.765H165.054Z" fill="#8989b0"/>
</svg>
